/* XPM */
static char * top_right_inactive_xpm[] = {
"5 24 25 1",
" 	c None",
".	c #3A3832",
"+	c #4A483D",
"@	c #303030",
"#	c #49473C",
"$	c #49463C",
"%	c #47453B",
"&	c #46443A",
"*	c #45433A",
"=	c #454339",
"-	c #434238",
";	c #424037",
">	c #413F36",
",	c #3F3E35",
"'	c #3E3D35",
")	c #3E3C34",
"!	c #3D3B33",
"~	c #3B3A33",
"{	c #3B3932",
"]	c #3A3831",
"^	c #383730",
"/	c #373630",
"(	c #37362F",
"_	c #36342E",
":	c #34332E",
".... ",
"++++@",
"####@",
"$$$$@",
"%%%%@",
"&&&&@",
"****@",
"====@",
"----@",
";;;;@",
";;;;@",
">>>>@",
",,,,@",
"''''@",
"))))@",
"!!!!@",
"~~~~@",
"{{{{@",
"]]]]@",
"^^^^@",
"////@",
"((((@",
"____@",
"::::@"};
